HIERARCHY
ROOT Hips
{
	OFFSET 0.000000 0.000000 0.000000 
	CHANNELS 6 Xposition Yposition Zposition Yrotation Zrotation Xrotation 
	JOINT Lumbar
	{
		OFFSET 0.000000 0.000000 0.000000 
		CHANNELS 3 Zrotation Xrotation Yrotation
		JOINT Neck
		{
			OFFSET 0.000000 0.445665 0.000000 
			CHANNELS 3 Zrotation Xrotation Yrotation
			End Site
			{
				OFFSET 0.000000 0.227535 0.000000 
			}
		}
		JOINT RightShoulder
		{
			OFFSET 0.019635 0.377685 0.194865 
			CHANNELS 3 Zrotation Xrotation Yrotation
			JOINT RightElbow
			{
				OFFSET 0.000000 -0.243375 0.000000 
				CHANNELS 2 Zrotation Yrotation
				JOINT RightWrist
				{
					OFFSET 0.000000 -0.264825 0.000000 
					CHANNELS 2 Zrotation Xrotation
					End Site
					{
						OFFSET 0.006600 -0.176220 0.000990 
					}
				}
			}
		}
		JOINT LeftShoulder
		{
			OFFSET 0.019635 0.377685 -0.194865 
			CHANNELS 3 Zrotation Xrotation Yrotation
			JOINT LeftElbow
			{
				OFFSET 0.000000 -0.243375 0.000000 
				CHANNELS 2 Zrotation Yrotation
				JOINT LeftWrist
				{
					OFFSET 0.000000 -0.264825 0.000000 
					CHANNELS 2 Zrotation Xrotation
					End Site
					{
						OFFSET 0.006600 -0.176220 -0.000990 
					}
				}
			}
		}
	}
	JOINT RightHip
	{
		OFFSET 0.052140 -0.069960 0.075570 
		CHANNELS 3 Zrotation Xrotation Yrotation
		JOINT RightKnee
		{
			OFFSET 0.000000 -0.402270 0.000000 
			CHANNELS 1 Zrotation
			JOINT RightAnkle
			{
				OFFSET 0.000000 -0.404085 0.000000 
				CHANNELS 3 Zrotation Xrotation Yrotation
				End Site
				{
					OFFSET 0.204105 -0.089430 0.008415 
				}
			}
		}
	}
	JOINT LeftHip
	{
		OFFSET 0.052140 -0.069960 -0.075570 
		CHANNELS 3 Zrotation Xrotation Yrotation
		JOINT LeftKnee
		{
			OFFSET 0.000000 -0.402270 0.000000 
			CHANNELS 1 Zrotation
			JOINT LeftAnkle
			{
				OFFSET 0.000000 -0.404085 0.000000 
				CHANNELS 3 Zrotation Xrotation Yrotation
				End Site
				{
					OFFSET 0.204105 -0.089430 -0.008415 
				}
			}
		}
	}
}
MOTION
Frames: 11
Frame Time: 0.02
0 0.95578 -0 183.88182 0 -3.93363 1.91112 4.23334 -2.49414 -41.23996 1.41073 5.11652 0.63364 -71.68107 -85.05297 15.35723 52.62197 -28.89204 1.14764 39.67451 68.03767 67.94772 15.90471 -93.53251 -26.4747 4.95483 -1.54348 7.66427 -5.70743 -7.56861 -0.10426 -3.46643 -8.45745 -1.8468 2.79914 1.05178 -6.25119 4.90524 4.53954 8.05975
-0.00063 0.95578 0.00076 183.94719 0 -3.95824 2.00363 4.2069 -2.63957 -41.5423 1.50696 5.14126 0.04022 -71.65487 -85.06338 15.32576 51.51723 -29.00728 1.08207 39.44426 67.8152 68.36506 15.92215 -93.1847 -26.29537 4.97731 -1.62905 7.65672 -5.8486 -7.48895 -0.14151 -3.45903 -8.41797 -1.94423 2.7877 1.08232 -6.12817 4.88947 4.51615 7.98857
-0.00127 0.95577 0.00152 184.01221 0 -3.98275 2.09629 4.18042 -2.78445 -41.84373 1.6025 5.16579 -0.54916 -71.62861 -85.07412 15.29446 50.42031 -29.12223 1.01814 39.21609 67.59396 68.77976 15.93962 -92.83905 -26.11708 4.99912 -1.71428 7.64918 -5.9889 -7.40991 -0.17834 -3.45173 -8.37886 -2.04119 2.77624 1.11255 -6.00615 4.87402 4.49301 7.91797
-0.00191 0.95576 0.00227 184.077 0 -4.007 2.1899 4.15361 -2.92891 -42.14423 1.69638 5.18979 -1.13019 -71.60216 -85.08433 15.26326 49.34285 -29.23774 0.96158 38.99388 67.37537 69.18789 15.95725 -92.4989 -25.94112 5.0179 -1.79917 7.64161 -6.12727 -7.332 -0.21412 -3.44467 -8.34091 -2.13683 2.76464 1.1415 -5.88718 4.85963 4.47049 7.8489
-0.00253 0.95576 0.00304 184.14366 0 -4.03252 2.27781 4.12865 -3.07602 -42.44936 1.79921 5.21672 -1.7579 -71.57706 -85.09504 15.23119 48.16102 -29.35103 0.86768 38.73998 67.14257 69.63072 15.97386 -92.12995 -25.7527 5.052 -1.88609 7.63422 -6.2761 -7.24739 -0.2558 -3.43625 -8.29689 -2.23899 2.75385 1.17681 -5.75238 4.83951 4.44452 7.77158
-0.0032 0.95574 0.00378 184.20587 0 -4.05539 2.37812 4.09973 -3.21709 -42.74457 1.88291 5.23733 -2.28459 -71.54889 -85.10624 15.20122 47.20203 -29.46837 0.85169 38.55341 66.94016 69.99981 15.99272 -91.82207 -25.5909 5.05418 -1.96846 7.62644 -6.4025 -7.17752 -0.28476 -3.43074 -8.26569 -2.32756 2.74135 1.19894 -5.65095 4.8316 4.42597 7.71188
-0.00405 0.9557 0.00442 184.26079 0 -4.07081 2.51321 4.05928 -3.34741 -43.01795 1.91496 5.24114 -2.55105 -71.51338 -85.10544 15.17436 46.84681 -29.60522 1.06886 38.55376 66.81823 70.16725 16.01774 -91.68216 -25.50006 4.96048 -2.04161 7.61747 -6.46942 -7.14381 -0.27986 -3.43333 -8.27102 -2.3771 2.72362 1.18123 -5.64435 4.85797 4.42745 7.70023
-0.00497 0.95564 0.00503 184.31039 0 -4.08361 2.66084 4.01489 -3.47074 -43.28047 1.9275 5.23846 -2.71259 -71.47455 -85.10724 15.14996 46.7185 -29.7448 1.36201 38.62176 66.72745 70.26005 16.04508 -91.60384 -25.43642 4.83574 -2.10966 7.60813 -6.51327 -7.1257 -0.26193 -3.43884 -8.28916 -2.4132 2.70426 1.1508 -5.671 4.89663 4.43651 7.70646
-0.00585 0.95559 0.00565 184.35918 0 -4.09772 2.80263 3.97262 -3.59355 -43.54486 1.94822 5.23829 -2.91002 -71.4364 -85.11698 15.12629 46.49322 -29.87783 1.60845 38.65835 66.62451 70.38591 16.0714 -91.49767 -25.36188 4.73023 -2.17793 7.59896 -6.56624 -7.10347 -0.24911 -3.44296 -8.30066 -2.45658 2.68595 1.12846 -5.68061 4.92933 4.44243 7.7049
-0.00675 0.95554 0.0063 184.42144 0 -4.11132 2.94516 3.92896 -3.7318 -43.82267 1.97184 5.2399 -3.15633 -71.40165 -85.08964 15.09531 46.24119 -30.03315 1.90465 38.69831 66.51321 70.51543 16.09754 -91.39108 -25.28128 4.60358 -2.25493 7.58968 -6.62517 -7.06904 -0.23958 -3.44736 -8.31536 -2.49525 2.66633 1.09654 -5.6981 4.96354 4.44712 7.70192
-0.00763 0.95548 0.00689 184.45459 0 -4.12535 3.0889 3.88726 -3.83639 -44.06929 1.98479 5.23636 -3.27698 -71.35919 -85.13834 15.07954 46.09987 -30.14285 2.11727 38.74664 66.42668 70.61951 16.12464 -91.29981 -25.21967 4.513 -2.31267 7.58065 -6.66594 -7.06332 -0.22028 -3.45186 -8.32672 -2.54024 2.64909 1.08136 -5.70742 4.99761 4.45611 7.70617
